<svg xmlns="http://www.w3.org/2000/svg" viewBox="0 0 765.45 214.94"><defs><style>.cls-1{fill:#91bed4;}.cls-2{fill:#f26101;}.cls-3{fill:#003354;}</style></defs><g id="Lager_2" data-name="Lager 2"><g id="Lager_1-2" data-name="Lager 1"><path class="cls-1" d="M139.71,109.26a19.67,19.67,0,0,0,0,39.34h58V109.26Zm0,26.22a6.56,6.56,0,1,1,6.45-6.55A6.5,6.5,0,0,1,139.71,135.48Z"/><path class="cls-1" d="M139.71,96.15H172V76.48a19.53,19.53,0,0,0-19.34-19.66H6.45A6.5,6.5,0,0,0,0,63.37V194.48A6.51,6.51,0,0,0,6.45,201H152.61A19.53,19.53,0,0,0,172,181.37V161.71H139.71c-17.78,0-32.24-14.71-32.24-32.78S121.93,96.15,139.71,96.15Z"/><path class="cls-1" d="M178.4,56.82h-.06a32.94,32.94,0,0,1,6.51,19.66V96.15h12.89V76.48A19.53,19.53,0,0,0,178.4,56.82Z"/><path class="cls-1" d="M184.85,161.71v19.66A33,33,0,0,1,178.34,201h.06a19.53,19.53,0,0,0,19.34-19.67V161.71Z"/><path class="cls-1" d="M105.58,1.92a6.37,6.37,0,0,0-9.12,0L90.79,7.68l35.44,36h20.45Z"/><path class="cls-1" d="M66.89,1.92a6.38,6.38,0,0,0-9.12,0L16.67,43.7H108Z"/><path class="cls-2" d="M290.64,122.61V181H268.72V122.61Zm-10.9-26.08a10.71,10.71,0,0,1,7.7,3.14,10.35,10.35,0,0,1,.18,14.91,12.06,12.06,0,0,1-15.76,0A10.36,10.36,0,0,1,272,99.67,10.74,10.74,0,0,1,279.74,96.53Z"/><path class="cls-3" d="M307.18,81.05H343.5q32.31,0,32.3,25.41,0,12.6-11.06,21,16,7,16,24.83,0,13.69-9.44,21.83a27.2,27.2,0,0,1-9.89,5.42A52.85,52.85,0,0,1,347.24,181H341.6v-25.7h5q4.47,0,6.3-1.14a4.32,4.32,0,0,0,1.83-4q0-4.83-7.47-4.83H341.6V118.7q8.2,0,8.2-5.64,0-5.2-7.4-5.2h-5.49V181H307.18Z"/><path class="cls-3" d="M390.74,109h27.4v41.23q0,6.23,5.2,6.23t5.12-6.23V109h27.4v40.72a33.22,33.22,0,0,1-9.45,24,31,31,0,0,1-23.15,9.77q-15.6,0-25.12-11.35-7.39-8.86-7.4-24.61Z"/><path class="cls-3" d="M516.79,81.05h27.4v60.86q0,16.77-8.79,27.32a35.89,35.89,0,0,1-12.86,9.67,37.93,37.93,0,0,1-16,3.59q-16.34,0-27.54-11a36.26,36.26,0,0,1-11.2-26.95,36.77,36.77,0,0,1,11.13-26.73q11.13-11.28,26.37-11.28c1.61,0,4.05.14,7.32.44v30.17a10.9,10.9,0,0,0-6.74-2.63,9.82,9.82,0,0,0-7.29,3.11,10.38,10.38,0,0,0-3,7.51,9.75,9.75,0,0,0,3.15,7.28,10.48,10.48,0,0,0,7.55,3q10.54,0,10.54-14.57Z"/><path class="cls-3" d="M597.58,150.92V176a32.57,32.57,0,0,1-11.35,2.2,29.29,29.29,0,0,1-22.45-10q-9.19-10-9.19-24.54a35.44,35.44,0,0,1,11.06-26.44q11.05-10.77,27.17-10.77a40.33,40.33,0,0,1,16.41,3.45,30.83,30.83,0,0,1,12.3,9.22Q629,128.73,629,147v24q0,19.56-11.09,31.75T589,214.94q-5.41,0-13.7-2.71V187.32a22.28,22.28,0,0,0,10.84,2.93c4.94,0,8.74-1.62,11.43-4.87s4-7.9,4-13.95V144q0-11.49-9.3-11.5a9.38,9.38,0,0,0-6.92,3,9.73,9.73,0,0,0-3,7,9.39,9.39,0,0,0,2.82,7,9.58,9.58,0,0,0,7,2.78A11.53,11.53,0,0,0,597.58,150.92Z"/><path class="cls-3" d="M716.89,148.94H675.36a19.18,19.18,0,0,1,.37-13h13.92q-1.47-8.13-9.16-8.13a9.93,9.93,0,0,0-8.35,4.36q-3.23,4.35-3.22,11.17,0,7.1,3.11,11.5a9.58,9.58,0,0,0,8.17,4.39q4.09,0,7.91-4.1l15.6,18.75a38.34,38.34,0,0,1-24.24,8.57q-16.26,0-27.32-10.91t-11.06-27a36.65,36.65,0,0,1,11.17-27.1q11.16-11.06,27.43-11.06,15.88,0,26.69,10.8a36.21,36.21,0,0,1,10.81,26.63C717.19,144.89,717.09,146.6,716.89,148.94Z"/><path class="cls-3" d="M752.63,81.05v28h12.31V138H752.63q0,8.72,2.75,12t10.07,3.3v28.78c-1.42,0-2.46.07-3.15.07a37.23,37.23,0,0,1-17.54-4.32,35.46,35.46,0,0,1-13.22-11.72q-6.3-9.45-6.3-25.05v-60Z"/></g></g></svg>