<svg id="visual" viewBox="0 0 960 200" width="960" height="200" xmlns="http://www.w3.org/2000/svg" xmlns:xlink="http://www.w3.org/1999/xlink" version="1.1"><rect x="0" y="0" width="960" height="200" fill="#d9e8f5"></rect><path d="M0 106L22.8 105.7C45.7 105.3 91.3 104.7 137 101C182.7 97.3 228.3 90.7 274 85.5C319.7 80.3 365.3 76.7 411.2 79.2C457 81.7 503 90.3 548.8 93.2C594.7 96 640.3 93 686 93.2C731.7 93.3 777.3 96.7 823 97.5C868.7 98.3 914.3 96.7 937.2 95.8L960 95L960 0L937.2 0C914.3 0 868.7 0 823 0C777.3 0 731.7 0 686 0C640.3 0 594.7 0 548.8 0C503 0 457 0 411.2 0C365.3 0 319.7 0 274 0C228.3 0 182.7 0 137 0C91.3 0 45.7 0 22.8 0L0 0Z" fill="#003354"></path><path d="M0 72L22.8 69.3C45.7 66.7 91.3 61.3 137 63.2C182.7 65 228.3 74 274 74.8C319.7 75.7 365.3 68.3 411.2 66C457 63.7 503 66.3 548.8 69.5C594.7 72.7 640.3 76.3 686 75.2C731.7 74 777.3 68 823 64.8C868.7 61.7 914.3 61.3 937.2 61.2L960 61L960 0L937.2 0C914.3 0 868.7 0 823 0C777.3 0 731.7 0 686 0C640.3 0 594.7 0 548.8 0C503 0 457 0 411.2 0C365.3 0 319.7 0 274 0C228.3 0 182.7 0 137 0C91.3 0 45.7 0 22.8 0L0 0Z" fill="#435a75"></path><path d="M0 46L22.8 46.7C45.7 47.3 91.3 48.7 137 51C182.7 53.3 228.3 56.7 274 56.2C319.7 55.7 365.3 51.3 411.2 49.2C457 47 503 47 548.8 48.8C594.7 50.7 640.3 54.3 686 57.3C731.7 60.3 777.3 62.7 823 65.2C868.7 67.7 914.3 70.3 937.2 71.7L960 73L960 0L937.2 0C914.3 0 868.7 0 823 0C777.3 0 731.7 0 686 0C640.3 0 594.7 0 548.8 0C503 0 457 0 411.2 0C365.3 0 319.7 0 274 0C228.3 0 182.7 0 137 0C91.3 0 45.7 0 22.8 0L0 0Z" fill="#768497"></path><path d="M0 51L22.8 48.8C45.7 46.7 91.3 42.3 137 40.5C182.7 38.7 228.3 39.3 274 38.5C319.7 37.7 365.3 35.3 411.2 37.2C457 39 503 45 548.8 45C594.7 45 640.3 39 686 38.7C731.7 38.3 777.3 43.7 823 42.7C868.7 41.7 914.3 34.3 937.2 30.7L960 27L960 0L937.2 0C914.3 0 868.7 0 823 0C777.3 0 731.7 0 686 0C640.3 0 594.7 0 548.8 0C503 0 457 0 411.2 0C365.3 0 319.7 0 274 0C228.3 0 182.7 0 137 0C91.3 0 45.7 0 22.8 0L0 0Z" fill="#aab1bb"></path><path d="M0 33L22.8 32.5C45.7 32 91.3 31 137 31C182.7 31 228.3 32 274 30.5C319.7 29 365.3 25 411.2 22C457 19 503 17 548.8 16.2C594.7 15.3 640.3 15.7 686 18.5C731.7 21.3 777.3 26.7 823 25.8C868.7 25 914.3 18 937.2 14.5L960 11L960 0L937.2 0C914.3 0 868.7 0 823 0C777.3 0 731.7 0 686 0C640.3 0 594.7 0 548.8 0C503 0 457 0 411.2 0C365.3 0 319.7 0 274 0C228.3 0 182.7 0 137 0C91.3 0 45.7 0 22.8 0L0 0Z" fill="#e0e0e0"></path></svg>