<svg xmlns="http://www.w3.org/2000/svg" width="39.102" height="36.163" viewBox="0 0 39.102 36.163">
  <g id="Logout" transform="translate(0)">
    <path id="Path_198" data-name="Path 198" d="M8.344,35.3H26.883a2.267,2.267,0,1,0,0-4.52H8.344l3.16-2.922a2.142,2.142,0,0,0,0-3.2,2.586,2.586,0,0,0-3.456,0L.716,31.443a2.141,2.141,0,0,0,0,3.2L8.048,41.42a2.586,2.586,0,0,0,3.456,0,2.142,2.142,0,0,0,0-3.2Z" transform="translate(0 -14.96)" fill="#003354"/>
    <path id="Path_199" data-name="Path 199" d="M58,0H38.444a2.547,2.547,0,0,0-1.729.662A2.176,2.176,0,0,0,36,2.26v4.52a2.451,2.451,0,0,0,4.888,0V4.52H55.551V31.643H40.888v-2.26a2.451,2.451,0,0,0-4.888,0V33.9a2.176,2.176,0,0,0,.715,1.6,2.547,2.547,0,0,0,1.729.662H58a2.547,2.547,0,0,0,1.729-.662,2.176,2.176,0,0,0,.715-1.6V2.26a2.176,2.176,0,0,0-.715-1.6A2.547,2.547,0,0,0,58,0Z" transform="translate(-21.337)" fill="#003354"/>
  </g>
</svg>
