<svg xmlns="http://www.w3.org/2000/svg" viewBox="0 0 766.15 289.48"><defs><style>.cls-1{fill:#f26101;}.cls-2{fill:#003354;}.cls-3{fill:#91bed4;}.cls-4{fill:#fff;}</style></defs><g id="Lager_2" data-name="Lager 2"><g id="Lager_1-2" data-name="Lager 1"><path class="cls-1" d="M291.33,197.15v58.42H269.42V197.15Zm-10.89-26.07a10.73,10.73,0,0,1,7.7,3.13,10.37,10.37,0,0,1,.18,14.91,12.06,12.06,0,0,1-15.76,0,10.36,10.36,0,0,1,.17-14.91A10.73,10.73,0,0,1,280.44,171.08Z"/><path class="cls-2" d="M307.87,155.59H344.2q32.3,0,32.3,25.42,0,12.6-11.06,21,16,7,16,24.83,0,13.69-9.45,21.82a26.94,26.94,0,0,1-9.88,5.42,52.43,52.43,0,0,1-14.21,1.54H342.3V229.86h5.05q4.47,0,6.3-1.13a4.32,4.32,0,0,0,1.83-4q0-4.85-7.47-4.84H342.3V193.24q8.19,0,8.2-5.64,0-5.21-7.4-5.2h-5.49v73.17H307.87Z"/><path class="cls-2" d="M391.44,183.57h27.39v41.24c0,4.15,1.74,6.22,5.2,6.22s5.13-2.07,5.13-6.22V183.57h27.39V224.3a33.23,33.23,0,0,1-9.44,24A31,31,0,0,1,424,258.06q-15.6,0-25.12-11.35-7.39-8.86-7.4-24.61Z"/><path class="cls-2" d="M517.49,155.59h27.39v60.87q0,16.77-8.78,27.32a36.12,36.12,0,0,1-12.86,9.67,37.91,37.91,0,0,1-16,3.58q-16.33,0-27.54-11a36.3,36.3,0,0,1-11.21-27,36.75,36.75,0,0,1,11.14-26.74q11.13-11.28,26.36-11.28c1.61,0,4.06.15,7.33.44V211.7a10.94,10.94,0,0,0-6.74-2.64,9.86,9.86,0,0,0-7.29,3.11,10.36,10.36,0,0,0-3,7.51A9.78,9.78,0,0,0,499.4,227a10.47,10.47,0,0,0,7.54,3q10.56,0,10.55-14.58Z"/><path class="cls-2" d="M598.28,225.47v25.12a32.8,32.8,0,0,1-11.35,2.2,29.28,29.28,0,0,1-22.45-10q-9.19-10-9.2-24.53a35.46,35.46,0,0,1,11.06-26.44Q577.41,181,593.52,181a40.41,40.41,0,0,1,16.4,3.44,30.81,30.81,0,0,1,12.31,9.23q7.47,9.6,7.47,27.83v24q0,19.54-11.1,31.75t-28.89,12.19q-5.43,0-13.7-2.71v-24.9a22.39,22.39,0,0,0,10.84,2.93q7.39,0,11.43-4.87t4-14V218.51q0-11.5-9.31-11.5a9.38,9.38,0,0,0-6.92,3,9.76,9.76,0,0,0-3,7,9.36,9.36,0,0,0,2.82,7,9.55,9.55,0,0,0,7,2.79A11.53,11.53,0,0,0,598.28,225.47Z"/><path class="cls-2" d="M717.59,223.49H676.06a19.18,19.18,0,0,1,.37-13h13.91q-1.46-8.13-9.15-8.13a9.94,9.94,0,0,0-8.35,4.35q-3.23,4.37-3.22,11.17,0,7.11,3.11,11.5a9.58,9.58,0,0,0,8.17,4.4q4.1,0,7.91-4.1l15.6,18.75A38.34,38.34,0,0,1,680.16,257q-16.26,0-27.32-10.91t-11.06-27A36.68,36.68,0,0,1,653,192q11.17-11.07,27.43-11.06,15.9,0,26.7,10.8t10.8,26.62C717.88,219.44,717.78,221.15,717.59,223.49Z"/><path class="cls-2" d="M753.33,155.59v28h12.31V212.5H753.33q0,8.73,2.75,12t10.07,3.29V256.6c-1.42,0-2.47.07-3.15.07a37.23,37.23,0,0,1-17.54-4.32,35.47,35.47,0,0,1-13.22-11.72q-6.3-9.45-6.3-25v-60Z"/><path class="cls-3" d="M173.44,103.12H126.56v9.38h46.88a14.08,14.08,0,0,1,14.06,14.06v18.87a23.24,23.24,0,0,0-14.06-4.8h-150a14.07,14.07,0,1,1,0-28.13H75v-9.38H23.44A23.47,23.47,0,0,0,0,126.56V262.5a23.47,23.47,0,0,0,23.44,23.44h150a23.47,23.47,0,0,0,23.44-23.44V126.56A23.47,23.47,0,0,0,173.44,103.12ZM187.5,239.06H131.25a23.44,23.44,0,1,1,0-46.87H187.5Zm0-56.25H131.25a32.82,32.82,0,0,0,0,65.63H187.5V262.5a14.08,14.08,0,0,1-14.06,14.06h-150A14.08,14.08,0,0,1,9.37,262.5V145.3A23.32,23.32,0,0,0,23.44,150h150a14.08,14.08,0,0,1,14.06,14.06Z"/><rect class="cls-3" x="23.44" y="121.88" width="150" height="9.38"/><circle class="cls-1" cx="98.44" cy="89.06" r="37.5"/><path class="cls-4" d="M103.13,103.12H93.75a4.69,4.69,0,0,1-4.69-4.68H79.69A14.08,14.08,0,0,0,93.75,112.5v4.69h9.38V112.5a14.07,14.07,0,0,0,0-28.13H93.75a4.69,4.69,0,1,1,0-9.37h9.38a4.69,4.69,0,0,1,4.68,4.69h9.38a14.09,14.09,0,0,0-14.06-14.07V60.94H93.75v4.68a14.07,14.07,0,0,0,0,28.13h9.38a4.69,4.69,0,0,1,0,9.37Z"/><path class="cls-3" d="M117.19,215.62a14.06,14.06,0,1,0,14.06-14.06A14.08,14.08,0,0,0,117.19,215.62Zm18.75,0a4.69,4.69,0,1,1-4.69-4.68A4.7,4.7,0,0,1,135.94,215.62Z"/><rect class="cls-3" x="93.75" width="9.38" height="37.5"/><rect class="cls-3" x="126.56" y="14.06" width="9.38" height="37.5"/><rect class="cls-3" x="60.94" y="23.44" width="9.38" height="28.13"/></g></g></svg>